<svg aria-hidden="true" style="width:0;height:0;position:absolute;overflow:hidden" xmlns="http://www.w3.org/2000/svg"><defs><symbol id="icon-arrow-right" viewBox="0 0 32 32"><path d="M8.51 3.254C8.184 3.63 8 4.14 8 4.671s.183 1.041.51 1.417l8.62 9.924-8.62 9.924c-.317.378-.493.884-.489 1.41s.187 1.029.51 1.4.76.583 1.216.587c.457.005.896-.198 1.225-.563l9.851-11.341c.326-.376.51-.886.51-1.417s-.183-1.041-.51-1.417L10.972 3.254c-.327-.376-.769-.587-1.231-.587s-.905.211-1.231.587z"/></symbol><symbol id="icon-close" viewBox="0 0 32 32"><path d="M32 3.223 28.777 0 16 12.777 3.223 0 0 3.223 12.777 16 0 28.777 3.223 32 16 19.223 28.777 32 32 28.777 19.223 16 32 3.223z"/></symbol><symbol id="icon-icecream-effect" viewBox="0 0 205 32"><path fill="#f8d24e" style="fill:var(--color1,#f8d24e)" d="M156.54 29.616c0 .982-.745 1.778-1.664 1.778s-1.664-.796-1.664-1.778.745-1.778 1.664-1.778 1.664.796 1.664 1.778zM160.146 27.245c0 .982-.745 1.778-1.664 1.778s-1.664-.796-1.664-1.778.745-1.778 1.664-1.778 1.664.796 1.664 1.778zM164.305 24.578c0 .982-.745 1.778-1.664 1.778s-1.664-.796-1.664-1.778.745-1.778 1.664-1.778 1.664.796 1.664 1.778zM168.189 22.206c0 .982-.745 1.778-1.664 1.778s-1.664-.796-1.664-1.778.745-1.778 1.664-1.778 1.664.796 1.664 1.778zM165.969 28.431c0 .982-.745 1.778-1.664 1.778s-1.664-.796-1.664-1.778.745-1.778 1.664-1.778 1.664.796 1.664 1.778zM169.575 26.06c0 .982-.745 1.778-1.664 1.778s-1.664-.796-1.664-1.778.745-1.778 1.664-1.778 1.664.796 1.664 1.778zM173.735 23.392c0 .982-.745 1.778-1.664 1.778s-1.664-.796-1.664-1.778.745-1.778 1.664-1.778 1.664.796 1.664 1.778zM177.619 21.021c0 .982-.745 1.778-1.664 1.778s-1.664-.796-1.664-1.778.745-1.778 1.664-1.778 1.664.796 1.664 1.778zM174.014 27.542c0 .982-.745 1.778-1.664 1.778s-1.664-.796-1.664-1.778.745-1.778 1.664-1.778 1.664.796 1.664 1.778zM177.619 25.171c0 .982-.745 1.778-1.664 1.778s-1.664-.796-1.664-1.778.745-1.778 1.664-1.778 1.664.796 1.664 1.778zM181.779 22.503c0 .982-.745 1.778-1.664 1.778s-1.664-.796-1.664-1.778.745-1.778 1.664-1.778 1.664.796 1.664 1.778zM185.662 20.132c0 .982-.745 1.778-1.664 1.778s-1.664-.796-1.664-1.778.745-1.778 1.664-1.778 1.664.796 1.664 1.778zM181.778 26.356c0 .982-.745 1.778-1.664 1.778s-1.664-.796-1.664-1.778.745-1.778 1.664-1.778 1.664.796 1.664 1.778zM185.383 23.985c0 .982-.745 1.778-1.664 1.778s-1.664-.796-1.664-1.778.745-1.778 1.664-1.778 1.664.796 1.664 1.778zM189.543 21.318c0 .982-.745 1.778-1.664 1.778s-1.664-.796-1.664-1.778.745-1.778 1.664-1.778 1.664.796 1.664 1.778zM193.427 18.947c0 .982-.745 1.778-1.664 1.778s-1.664-.796-1.664-1.778.745-1.778 1.664-1.778 1.664.796 1.664 1.778zM184.276 29.616c0 .982-.745 1.778-1.664 1.778s-1.664-.796-1.664-1.778.745-1.778 1.664-1.778 1.664.796 1.664 1.778zM187.882 27.245c0 .982-.745 1.778-1.664 1.778s-1.664-.796-1.664-1.778.745-1.778 1.664-1.778 1.664.796 1.664 1.778zM192.874 29.913c0 .982-.745 1.778-1.664 1.778s-1.664-.796-1.664-1.778.745-1.778 1.664-1.778 1.664.796 1.664 1.778zM192.042 24.578c0 .982-.745 1.778-1.664 1.778s-1.664-.796-1.664-1.778.745-1.778 1.664-1.778 1.664.796 1.664 1.778zM197.034 27.245c0 .982-.745 1.778-1.664 1.778s-1.664-.796-1.664-1.778.745-1.778 1.664-1.778 1.664.796 1.664 1.778zM200.918 29.913c0 .982-.745 1.778-1.664 1.778s-1.664-.796-1.664-1.778.745-1.778 1.664-1.778 1.664.796 1.664 1.778zM195.925 22.206c0 .982-.745 1.778-1.664 1.778s-1.664-.796-1.664-1.778.745-1.778 1.664-1.778 1.664.796 1.664 1.778zM200.918 24.874c0 .982-.745 1.778-1.664 1.778s-1.664-.796-1.664-1.778.745-1.778 1.664-1.778 1.664.796 1.664 1.778zM204.801 27.542c0 .982-.745 1.778-1.664 1.778s-1.664-.796-1.664-1.778.745-1.778 1.664-1.778 1.664.796 1.664 1.778zM139.622 10.055c0 .982-.745 1.778-1.664 1.778s-1.664-.796-1.664-1.778.745-1.778 1.664-1.778 1.664.796 1.664 1.778zM143.227 7.684c0 .982-.745 1.778-1.664 1.778s-1.664-.796-1.664-1.778.745-1.778 1.664-1.778 1.664.796 1.664 1.778zM147.388 5.016c0 .982-.745 1.778-1.664 1.778s-1.664-.796-1.664-1.778.745-1.778 1.664-1.778 1.664.796 1.664 1.778zM151.27 2.645c0 .982-.745 1.778-1.664 1.778s-1.664-.796-1.664-1.778.745-1.778 1.664-1.778 1.664.796 1.664 1.778zM132.687 9.758c0 .982-.745 1.778-1.664 1.778s-1.664-.796-1.664-1.778.745-1.778 1.664-1.778 1.664.796 1.664 1.778zM136.293 7.387c0 .982-.745 1.778-1.664 1.778s-1.664-.796-1.664-1.778.745-1.778 1.664-1.778 1.664.796 1.664 1.778zM140.453 4.72c0 .982-.745 1.778-1.664 1.778s-1.664-.796-1.664-1.778.745-1.778 1.664-1.778 1.664.796 1.664 1.778zM144.335 2.349c0 .982-.745 1.778-1.664 1.778s-1.664-.796-1.664-1.778.745-1.778 1.664-1.778 1.664.796 1.664 1.778zM148.219 29.616c0 .982-.745 1.778-1.664 1.778s-1.664-.796-1.664-1.778.745-1.778 1.664-1.778 1.664.796 1.664 1.778zM151.824 27.245c0 .982-.745 1.778-1.664 1.778s-1.664-.796-1.664-1.778.745-1.778 1.664-1.778 1.664.796 1.664 1.778zM155.984 24.578c0 .982-.745 1.778-1.664 1.778s-1.664-.796-1.664-1.778.745-1.778 1.664-1.778 1.664.796 1.664 1.778zM159.868 22.206c0 .982-.745 1.778-1.664 1.778s-1.664-.796-1.664-1.778.745-1.778 1.664-1.778 1.664.796 1.664 1.778zM143.781 27.838c0 .982-.745 1.778-1.664 1.778s-1.664-.796-1.664-1.778.745-1.778 1.664-1.778 1.664.796 1.664 1.778zM147.387 25.467c0 .982-.745 1.778-1.664 1.778s-1.664-.796-1.664-1.778.745-1.778 1.664-1.778 1.664.796 1.664 1.778zM151.547 22.8c0 .982-.745 1.778-1.664 1.778s-1.664-.796-1.664-1.778.745-1.778 1.664-1.778 1.664.796 1.664 1.778zM155.43 20.429c0 .982-.745 1.778-1.664 1.778s-1.664-.796-1.664-1.778.745-1.778 1.664-1.778 1.664.796 1.664 1.778zM145.446 21.614c0 .982-.745 1.778-1.664 1.778s-1.664-.796-1.664-1.778.745-1.778 1.664-1.778 1.664.796 1.664 1.778zM149.051 19.243c0 .982-.745 1.778-1.664 1.778s-1.664-.796-1.664-1.778.745-1.778 1.664-1.778 1.664.796 1.664 1.778zM153.212 16.575c0 .982-.745 1.778-1.664 1.778s-1.664-.796-1.664-1.778.745-1.778 1.664-1.778 1.664.796 1.664 1.778zM157.095 14.204c0 .982-.745 1.778-1.664 1.778s-1.664-.796-1.664-1.778.745-1.778 1.664-1.778 1.664.796 1.664 1.778zM145.446 11.24c0 .982-.745 1.778-1.664 1.778s-1.664-.796-1.664-1.778.745-1.778 1.664-1.778 1.664.796 1.664 1.778zM149.051 8.869c0 .982-.745 1.778-1.664 1.778s-1.664-.796-1.664-1.778.745-1.778 1.664-1.778 1.664.796 1.664 1.778zM153.212 6.202c0 .982-.745 1.778-1.664 1.778s-1.664-.796-1.664-1.778.745-1.778 1.664-1.778 1.664.796 1.664 1.778zM157.095 3.831c0 .982-.745 1.778-1.664 1.778s-1.664-.796-1.664-1.778.745-1.778 1.664-1.778 1.664.796 1.664 1.778zM144.613 16.872c0 .982-.745 1.778-1.664 1.778s-1.664-.796-1.664-1.778.745-1.778 1.664-1.778 1.664.796 1.664 1.778zM148.22 14.501c0 .982-.745 1.778-1.664 1.778s-1.664-.796-1.664-1.778.745-1.778 1.664-1.778 1.664.796 1.664 1.778zM152.379 11.833c0 .982-.745 1.778-1.664 1.778s-1.664-.796-1.664-1.778.745-1.778 1.664-1.778 1.664.796 1.664 1.778zM156.262 9.462c0 .982-.745 1.778-1.664 1.778s-1.664-.796-1.664-1.778.745-1.778 1.664-1.778 1.664.796 1.664 1.778zM127.14 8.276c0 .982-.745 1.778-1.664 1.778s-1.664-.796-1.664-1.778.745-1.778 1.664-1.778 1.664.796 1.664 1.778zM130.746 5.905c0 .982-.745 1.778-1.664 1.778s-1.664-.796-1.664-1.778.745-1.778 1.664-1.778 1.664.796 1.664 1.778zM134.906 3.238c0 .982-.745 1.778-1.664 1.778s-1.664-.796-1.664-1.778.745-1.778 1.664-1.778 1.664.796 1.664 1.778z"/><path fill="#f8d24e" style="fill:var(--color1,#f8d24e)" d="M132.964 10.055c.919 0 1.665-.796 1.665-1.778s-.746-1.778-1.665-1.778-1.664.796-1.664 1.778.745 1.778 1.664 1.778zM56.441 21.475c.141.985-.491 1.906-1.413 2.057s-1.784-.525-1.925-1.51c-.141-.985.491-1.906 1.413-2.057s1.784.525 1.925 1.51zM59.717 18.504c.141.985-.491 1.906-1.413 2.057s-1.784-.525-1.925-1.51c-.141-.985.491-1.906 1.413-2.057s1.784.525 1.925 1.51zM63.506 15.144c.141.985-.491 1.906-1.413 2.057s-1.784-.525-1.925-1.51c-.141-.985.491-1.906 1.413-2.057s1.784.525 1.925 1.51zM67.06 12.128c.141.985-.491 1.906-1.413 2.057s-1.784-.525-1.925-1.51c-.141-.985.491-1.906 1.413-2.057s1.784.525 1.925 1.51zM3.481 21.473c0 .997-.779 1.805-1.741 1.805s-1.741-.808-1.741-1.805c0-.997.779-1.805 1.741-1.805s1.741.808 1.741 1.805zM7.252 19.067c0 .997-.779 1.805-1.741 1.805s-1.741-.808-1.741-1.805c0-.997.779-1.805 1.741-1.805s1.741.808 1.741 1.805zM11.605 16.36c0 .997-.779 1.805-1.741 1.805s-1.741-.808-1.741-1.805c0-.997.779-1.805 1.741-1.805s1.741.808 1.741 1.805zM15.666 13.953c0 .997-.779 1.805-1.741 1.805s-1.741-.808-1.741-1.805c0-.997.779-1.805 1.741-1.805s1.741.808 1.741 1.805zM5.223 25.984c0 .997-.779 1.805-1.741 1.805s-1.741-.808-1.741-1.805c0-.997.779-1.805 1.741-1.805s1.741.808 1.741 1.805zM8.994 23.578c0 .997-.779 1.805-1.741 1.805s-1.741-.808-1.741-1.805c0-.997.779-1.805 1.741-1.805s1.741.808 1.741 1.805zM13.346 20.871c0 .997-.779 1.805-1.741 1.805s-1.741-.808-1.741-1.805c0-.997.779-1.805 1.741-1.805s1.741.808 1.741 1.805zM17.407 18.465c0 .997-.779 1.805-1.741 1.805s-1.741-.808-1.741-1.805c0-.997.779-1.805 1.741-1.805s1.741.808 1.741 1.805zM9.573 28.39c0 .997-.779 1.805-1.741 1.805s-1.741-.808-1.741-1.805c0-.997.779-1.805 1.741-1.805s1.741.808 1.741 1.805zM13.345 25.984c0 .997-.779 1.805-1.741 1.805s-1.741-.808-1.741-1.805c0-.997.779-1.805 1.741-1.805s1.741.808 1.741 1.805zM17.696 23.277c0 .997-.779 1.805-1.741 1.805s-1.741-.808-1.741-1.805c0-.997.779-1.805 1.741-1.805s1.741.808 1.741 1.805zM21.758 20.871c0 .997-.779 1.805-1.741 1.805s-1.741-.808-1.741-1.805c0-.997.779-1.805 1.741-1.805s1.741.808 1.741 1.805zM14.504 29.895c0 .997-.779 1.805-1.741 1.805s-1.741-.808-1.741-1.805c0-.997.779-1.805 1.741-1.805s1.741.808 1.741 1.805zM18.276 27.488c0 .997-.779 1.805-1.741 1.805s-1.741-.808-1.741-1.805c0-.997.779-1.805 1.741-1.805s1.741.808 1.741 1.805zM22.629 24.781c0 .997-.779 1.805-1.741 1.805s-1.741-.808-1.741-1.805c0-.997.779-1.805 1.741-1.805s1.741.808 1.741 1.805zM26.689 22.375c0 .997-.779 1.805-1.741 1.805s-1.741-.808-1.741-1.805c0-.997.779-1.805 1.741-1.805s1.741.808 1.741 1.805z"/><path fill="#f8d24e" style="fill:var(--color1,#f8d24e)" d="M20.888 30.196c0 .997-.779 1.805-1.741 1.805s-1.741-.808-1.741-1.805c0-.997.779-1.805 1.741-1.805s1.741.808 1.741 1.805zM24.659 27.789c0 .997-.779 1.805-1.741 1.805s-1.741-.808-1.741-1.805c0-.997.779-1.805 1.741-1.805s1.741.808 1.741 1.805zM29.011 25.082c0 .997-.779 1.805-1.741 1.805s-1.741-.808-1.741-1.805c0-.997.779-1.805 1.741-1.805s1.741.808 1.741 1.805zM33.072 22.676c0 .997-.779 1.805-1.741 1.805s-1.741-.808-1.741-1.805c0-.997.779-1.805 1.741-1.805s1.741.808 1.741 1.805zM28.431 30.195c0 .997-.779 1.805-1.741 1.805s-1.741-.808-1.741-1.805c0-.997.779-1.805 1.741-1.805s1.741.808 1.741 1.805zM32.202 27.789c0 .997-.779 1.805-1.741 1.805s-1.741-.808-1.741-1.805c0-.997.779-1.805 1.741-1.805s1.741.808 1.741 1.805zM36.554 25.082c0 .997-.779 1.805-1.741 1.805s-1.741-.808-1.741-1.805c0-.997.779-1.805 1.741-1.805s1.741.808 1.741 1.805zM40.616 22.676c0 .997-.779 1.805-1.741 1.805s-1.741-.808-1.741-1.805c0-.997.779-1.805 1.741-1.805s1.741.808 1.741 1.805z"/><path fill="#f8d24e" style="fill:var(--color1,#f8d24e)" d="M34.812 29.895c0 .997-.779 1.805-1.741 1.805s-1.741-.808-1.741-1.805c0-.997.779-1.805 1.741-1.805s1.741.808 1.741 1.805zM38.583 27.488c0 .997-.779 1.805-1.741 1.805s-1.741-.808-1.741-1.805c0-.997.779-1.805 1.741-1.805s1.741.808 1.741 1.805zM42.936 24.781c0 .997-.779 1.805-1.741 1.805s-1.741-.808-1.741-1.805c0-.997.779-1.805 1.741-1.805s1.741.808 1.741 1.805zM46.996 22.375c0 .997-.779 1.805-1.741 1.805s-1.741-.808-1.741-1.805c0-.997.779-1.805 1.741-1.805s1.741.808 1.741 1.805zM42.064 29.594c0 .997-.779 1.805-1.741 1.805s-1.741-.808-1.741-1.805c0-.997.779-1.805 1.741-1.805s1.741.808 1.741 1.805zM45.836 27.187c0 .997-.779 1.805-1.741 1.805s-1.741-.808-1.741-1.805c0-.997.779-1.805 1.741-1.805s1.741.808 1.741 1.805zM50.188 24.481c0 .997-.779 1.805-1.741 1.805s-1.741-.808-1.741-1.805c0-.997.779-1.805 1.741-1.805s1.741.808 1.741 1.805zM54.249 22.074c0 .997-.779 1.805-1.741 1.805s-1.741-.808-1.741-1.805c0-.997.779-1.805 1.741-1.805s1.741.808 1.741 1.805z"/><path fill="#f8d24e" style="fill:var(--color1,#f8d24e)" d="M48.737 21.773c0 .997-.779 1.805-1.741 1.805s-1.741-.808-1.741-1.805c0-.997.779-1.805 1.741-1.805s1.741.808 1.741 1.805zM52.508 19.367c0 .997-.779 1.805-1.741 1.805s-1.741-.808-1.741-1.805c0-.997.779-1.805 1.741-1.805s1.741.808 1.741 1.805zM56.86 16.66c0 .997-.779 1.805-1.741 1.805s-1.741-.808-1.741-1.805c0-.997.779-1.805 1.741-1.805s1.741.808 1.741 1.805zM60.921 14.254c0 .997-.779 1.805-1.741 1.805s-1.741-.808-1.741-1.805c0-.997.779-1.805 1.741-1.805s1.741.808 1.741 1.805z"/></symbol><symbol id="icon-arrow" viewBox="0 0 82 32"><path fill="#fcfcfc" style="fill:var(--color1,#fcfcfc)" d="M81.414 17.414a2 2 0 0 0 0-2.828L68.686 1.858a2 2 0 1 0-2.828 2.828L77.172 16 65.858 27.314a2 2 0 1 0 2.828 2.828l12.728-12.728zM0 18h80v-4H0v4z"/></symbol><symbol id="icon-23" viewBox="0 0 52 32"><path d="M2.079 30.545V24.64l10.304-9.53c.652-.624 1.127-1.168 1.425-1.629.326-.462.543-.869.652-1.222.109-.38.163-.733.163-1.059 0-.706-.231-1.249-.692-1.629-.462-.407-1.154-.611-2.077-.611-.842 0-1.643.231-2.403.692-.76.434-1.358 1.086-1.792 1.955L.41 7.982c1.032-1.955 2.579-3.543 4.643-4.765s4.629-1.833 7.697-1.833c2.254 0 4.249.367 5.987 1.1s3.095 1.765 4.073 3.095 1.466 2.905 1.466 4.724c0 .923-.122 1.846-.367 2.769-.217.923-.679 1.901-1.385 2.932-.706 1.005-1.751 2.131-3.136 3.38L11.65 26.43l-1.507-3.34h14.784v7.453H2.079zm36.264.652c-1.955 0-3.937-.217-5.946-.652s-3.774-1.072-5.295-1.914l3.258-7.087a15.65 15.65 0 0 0 3.828 1.588c1.358.326 2.634.489 3.828.489 1.086 0 1.968-.176 2.647-.529.706-.38 1.059-.937 1.059-1.67 0-.624-.258-1.1-.774-1.425-.516-.353-1.385-.529-2.607-.529h-3.788v-5.905l7.372-7.494.855 3.217H28.566V2.037h21.26v5.905l-7.372 7.494-4.602-2.607h2.525c3.584 0 6.313.801 8.186 2.403s2.81 3.665 2.81 6.191c0 1.629-.462 3.19-1.385 4.684-.896 1.493-2.308 2.715-4.236 3.665-1.901.95-4.371 1.425-7.412 1.425z"/></symbol><symbol id="icon-16" viewBox="0 0 47 32"><path d="M6.058 30.545V5.376l4.113 3.91H1.17V2.037h14.499v28.509H6.057zm28.427.652c-2.715 0-5.105-.516-7.168-1.548-2.036-1.059-3.638-2.62-4.806-4.684-1.14-2.091-1.711-4.684-1.711-7.779 0-3.34.665-6.177 1.996-8.512 1.33-2.362 3.177-4.168 5.539-5.417 2.389-1.249 5.145-1.873 8.268-1.873 1.683 0 3.299.204 4.847.611 1.575.38 2.905.923 3.991 1.629l-3.462 6.72c-.842-.597-1.697-.991-2.566-1.181a10.404 10.404 0 0 0-2.607-.326c-1.928 0-3.475.584-4.643 1.751-1.14 1.14-1.711 2.81-1.711 5.009V18l-2.199-1.588c.543-.923 1.181-1.697 1.914-2.321.733-.652 1.602-1.14 2.607-1.466 1.005-.353 2.172-.529 3.503-.529 1.738 0 3.34.38 4.806 1.14 1.493.733 2.688 1.778 3.584 3.136.923 1.358 1.385 2.973 1.385 4.847 0 2.036-.516 3.801-1.548 5.295s-2.43 2.647-4.195 3.462c-1.738.815-3.679 1.222-5.824 1.222zm-.652-6.638c.57 0 1.072-.109 1.507-.326.462-.244.815-.584 1.059-1.018s.367-.95.367-1.548c0-.896-.272-1.602-.815-2.118-.543-.543-1.249-.815-2.118-.815-.57 0-1.073.122-1.507.367s-.788.584-1.059 1.018c-.244.434-.367.95-.367 1.548s.122 1.113.367 1.548c.271.434.624.774 1.059 1.018.434.217.937.326 1.507.326z"/></symbol><symbol id="icon-tablet-effect" viewBox="0 0 356 32"><path fill="#f8d24e" style="fill:var(--color1,#f8d24e)" d="M306.022 29.57c0 1.021-.832 1.849-1.858 1.849s-1.858-.828-1.858-1.849.832-1.849 1.858-1.849 1.858.828 1.858 1.849zM309.737 27.259c0 1.021-.832 1.849-1.858 1.849s-1.858-.828-1.858-1.849.832-1.849 1.858-1.849 1.858.828 1.858 1.849zM314.38 24.484c0 1.021-.832 1.849-1.858 1.849s-1.858-.828-1.858-1.849.832-1.849 1.858-1.849 1.858.828 1.858 1.849zM318.095 22.173c0 1.021-.832 1.849-1.858 1.849s-1.858-.828-1.858-1.849.832-1.849 1.858-1.849 1.858.828 1.858 1.849zM315.773 28.646c0 1.021-.832 1.849-1.858 1.849s-1.858-.828-1.858-1.849.832-1.849 1.858-1.849 1.858.828 1.858 1.849zM319.489 26.334c0 1.021-.832 1.849-1.858 1.849s-1.858-.828-1.858-1.849.832-1.849 1.858-1.849 1.858.828 1.858 1.849zM324.132 23.56c0 1.021-.832 1.849-1.858 1.849s-1.858-.828-1.858-1.849.832-1.849 1.858-1.849 1.858.828 1.858 1.849zM327.847 21.248c0 1.021-.832 1.849-1.858 1.849s-1.858-.828-1.858-1.849.832-1.849 1.858-1.849 1.858.828 1.858 1.849zM324.132 27.721c0 1.021-.832 1.849-1.858 1.849s-1.858-.828-1.858-1.849.832-1.849 1.858-1.849 1.858.828 1.858 1.849zM327.847 25.409c0 1.021-.832 1.849-1.858 1.849s-1.858-.828-1.858-1.849.832-1.849 1.858-1.849 1.858.828 1.858 1.849zM332.491 22.635c0 1.021-.832 1.849-1.858 1.849s-1.858-.828-1.858-1.849.832-1.849 1.858-1.849 1.858.828 1.858 1.849zM336.206 20.323c0 1.021-.832 1.849-1.858 1.849s-1.858-.828-1.858-1.849.832-1.849 1.858-1.849 1.858.828 1.858 1.849zM332.491 26.334c0 1.021-.832 1.849-1.858 1.849s-1.858-.828-1.858-1.849.832-1.849 1.858-1.849 1.858.828 1.858 1.849zM336.206 24.022c0 1.021-.832 1.849-1.858 1.849s-1.858-.828-1.858-1.849.832-1.849 1.858-1.849 1.858.828 1.858 1.849zM340.85 21.248c0 1.021-.832 1.849-1.858 1.849s-1.858-.828-1.858-1.849.832-1.849 1.858-1.849 1.858.828 1.858 1.849zM344.565 18.936c0 1.021-.832 1.849-1.858 1.849s-1.858-.828-1.858-1.849.832-1.849 1.858-1.849 1.858.828 1.858 1.849zM334.813 29.57c0 1.021-.832 1.849-1.858 1.849s-1.858-.828-1.858-1.849.832-1.849 1.858-1.849 1.858.828 1.858 1.849zM338.528 27.259c0 1.021-.832 1.849-1.858 1.849s-1.858-.828-1.858-1.849.832-1.849 1.858-1.849 1.858.828 1.858 1.849zM343.636 30.033c0 1.021-.832 1.849-1.858 1.849s-1.858-.828-1.858-1.849.832-1.849 1.858-1.849 1.858.828 1.858 1.849zM343.171 24.484c0 1.021-.832 1.849-1.858 1.849s-1.858-.828-1.858-1.849.832-1.849 1.858-1.849 1.858.828 1.858 1.849zM348.279 27.259c0 1.021-.832 1.849-1.858 1.849s-1.858-.828-1.858-1.849.832-1.849 1.858-1.849 1.858.828 1.858 1.849zM352.459 30.033c0 1.021-.832 1.849-1.858 1.849s-1.858-.828-1.858-1.849.832-1.849 1.858-1.849 1.858.828 1.858 1.849zM346.887 22.173c0 1.021-.832 1.849-1.858 1.849s-1.858-.828-1.858-1.849.832-1.849 1.858-1.849 1.858.828 1.858 1.849zM352.459 24.947c0 1.021-.832 1.849-1.858 1.849s-1.858-.828-1.858-1.849.832-1.849 1.858-1.849 1.858.828 1.858 1.849zM356.174 27.721c0 1.021-.832 1.849-1.858 1.849s-1.858-.828-1.858-1.849.832-1.849 1.858-1.849 1.858.828 1.858 1.849zM288.376 10.151c0 1.021-.832 1.849-1.858 1.849s-1.858-.828-1.858-1.849.832-1.849 1.858-1.849 1.858.828 1.858 1.849zM292.091 7.839c0 1.021-.832 1.849-1.858 1.849s-1.858-.828-1.858-1.849.832-1.849 1.858-1.849 1.858.828 1.858 1.849zM296.734 5.065c0 1.021-.832 1.849-1.858 1.849s-1.858-.828-1.858-1.849.832-1.849 1.858-1.849 1.858.828 1.858 1.849zM300.449 2.753c0 1.021-.832 1.849-1.858 1.849s-1.858-.828-1.858-1.849.832-1.849 1.858-1.849 1.858.828 1.858 1.849zM280.946 9.689c0 1.021-.832 1.849-1.858 1.849s-1.858-.828-1.858-1.849.832-1.849 1.858-1.849 1.858.828 1.858 1.849zM284.661 7.377c0 1.021-.832 1.849-1.858 1.849s-1.858-.828-1.858-1.849.832-1.849 1.858-1.849 1.858.828 1.858 1.849zM289.304 4.603c0 1.021-.832 1.849-1.858 1.849s-1.858-.828-1.858-1.849.832-1.849 1.858-1.849 1.858.828 1.858 1.849zM293.019 2.291c0 1.021-.832 1.849-1.858 1.849s-1.858-.828-1.858-1.849.832-1.849 1.858-1.849 1.858.828 1.858 1.849zM297.198 29.57c0 1.021-.832 1.849-1.858 1.849s-1.858-.828-1.858-1.849.832-1.849 1.858-1.849 1.858.828 1.858 1.849zM300.914 27.259c0 1.021-.832 1.849-1.858 1.849s-1.858-.828-1.858-1.849.832-1.849 1.858-1.849 1.858.828 1.858 1.849zM305.557 24.484c0 1.021-.832 1.849-1.858 1.849s-1.858-.828-1.858-1.849.832-1.849 1.858-1.849 1.858.828 1.858 1.849zM309.272 22.173c0 1.021-.832 1.849-1.858 1.849s-1.858-.828-1.858-1.849.832-1.849 1.858-1.849 1.858.828 1.858 1.849zM292.555 28.183c0 1.021-.832 1.849-1.858 1.849s-1.858-.828-1.858-1.849.832-1.849 1.858-1.849 1.858.828 1.858 1.849z"/><path fill="#f8d24e" style="fill:var(--color1,#f8d24e)" d="M296.27 25.872c0 1.021-.832 1.849-1.858 1.849s-1.858-.828-1.858-1.849.832-1.849 1.858-1.849 1.858.828 1.858 1.849zM300.914 23.097c0 1.021-.832 1.849-1.858 1.849s-1.858-.828-1.858-1.849.832-1.849 1.858-1.849 1.858.828 1.858 1.849zM304.628 20.785c0 1.021-.832 1.849-1.858 1.849s-1.858-.828-1.858-1.849.832-1.849 1.858-1.849 1.858.828 1.858 1.849zM294.413 21.71c0 1.021-.832 1.849-1.858 1.849s-1.858-.828-1.858-1.849.832-1.849 1.858-1.849 1.858.828 1.858 1.849zM298.127 19.398c0 1.021-.832 1.849-1.858 1.849s-1.858-.828-1.858-1.849.832-1.849 1.858-1.849 1.858.828 1.858 1.849zM302.771 16.624c0 1.021-.832 1.849-1.858 1.849s-1.858-.828-1.858-1.849.832-1.849 1.858-1.849 1.858.828 1.858 1.849zM306.486 14.312c0 1.021-.832 1.849-1.858 1.849s-1.858-.828-1.858-1.849.832-1.849 1.858-1.849 1.858.828 1.858 1.849zM294.413 11.076c0 1.021-.832 1.849-1.858 1.849s-1.858-.828-1.858-1.849.832-1.849 1.858-1.849 1.858.828 1.858 1.849zM298.127 8.764c0 1.021-.832 1.849-1.858 1.849s-1.858-.828-1.858-1.849.832-1.849 1.858-1.849 1.858.828 1.858 1.849zM302.771 5.99c0 1.021-.832 1.849-1.858 1.849s-1.858-.828-1.858-1.849.832-1.849 1.858-1.849 1.858.828 1.858 1.849zM306.486 3.678c0 1.021-.832 1.849-1.858 1.849s-1.858-.828-1.858-1.849.832-1.849 1.858-1.849 1.858.828 1.858 1.849zM293.484 17.087c0 1.021-.832 1.849-1.858 1.849s-1.858-.828-1.858-1.849.832-1.849 1.858-1.849 1.858.828 1.858 1.849zM297.198 14.775c0 1.021-.832 1.849-1.858 1.849s-1.858-.828-1.858-1.849.832-1.849 1.858-1.849 1.858.828 1.858 1.849zM301.842 12.001c0 1.021-.832 1.849-1.858 1.849s-1.858-.828-1.858-1.849.832-1.849 1.858-1.849 1.858.828 1.858 1.849zM305.557 9.689c0 1.021-.832 1.849-1.858 1.849s-1.858-.828-1.858-1.849.832-1.849 1.858-1.849 1.858.828 1.858 1.849zM274.909 8.302c0 1.021-.728 1.849-1.625 1.849s-1.625-.828-1.625-1.849.728-1.849 1.625-1.849 1.625.828 1.625 1.849zM278.624 5.99c0 1.021-.728 1.849-1.625 1.849s-1.625-.828-1.625-1.849.728-1.849 1.625-1.849 1.625.828 1.625 1.849zM283.267 3.216c0 1.021-.728 1.849-1.625 1.849s-1.625-.828-1.625-1.849.728-1.849 1.625-1.849 1.625.828 1.625 1.849zM281.178 10.151c.898 0 1.625-.828 1.625-1.849s-.728-1.849-1.625-1.849-1.625.828-1.625 1.849.728 1.849 1.625 1.849zM3.715 27.362a1.856 1.856 0 1 1-3.712-.002 1.856 1.856 0 0 1 3.712.002zM7.43 25.043a1.856 1.856 0 1 1-3.712-.002 1.856 1.856 0 0 1 3.712.002zM12.074 22.261a1.856 1.856 0 1 1-3.712-.002 1.856 1.856 0 0 1 3.712.002zM15.789 19.942a1.856 1.856 0 1 1-3.712-.002 1.856 1.856 0 0 1 3.712.002zM26.005 28.29c0 1.025-.832 1.855-1.858 1.855s-1.858-.831-1.858-1.855c0-1.025.832-1.855 1.858-1.855s1.858.831 1.858 1.855zM29.72 25.971c0 1.025-.832 1.855-1.858 1.855s-1.858-.831-1.858-1.855c0-1.025.832-1.855 1.858-1.855s1.858.831 1.858 1.855zM34.364 23.188c0 1.025-.832 1.855-1.858 1.855s-1.858-.831-1.858-1.855c0-1.025.832-1.855 1.858-1.855s1.858.831 1.858 1.855zM38.079 20.87c0 1.025-.832 1.855-1.858 1.855s-1.858-.831-1.858-1.855c0-1.025.832-1.855 1.858-1.855s1.858.831 1.858 1.855zM34.364 26.899c0 1.025-.728 1.855-1.625 1.855s-1.625-.831-1.625-1.855c0-1.025.728-1.855 1.625-1.855s1.625.831 1.625 1.855z"/><path fill="#f8d24e" style="fill:var(--color1,#f8d24e)" d="M38.078 24.58c0 1.025-.728 1.855-1.625 1.855s-1.625-.831-1.625-1.855c0-1.025.728-1.855 1.625-1.855s1.625.831 1.625 1.855zM42.258 22.261c0 1.025-.728 1.855-1.625 1.855s-1.625-.831-1.625-1.855c0-1.025.728-1.855 1.625-1.855s1.625.831 1.625 1.855zM46.437 19.942c0 1.025-.728 1.855-1.625 1.855s-1.625-.831-1.625-1.855c0-1.025.728-1.855 1.625-1.855s1.625.831 1.625 1.855zM51.081 16.232c0 1.025-.728 1.855-1.625 1.855s-1.625-.831-1.625-1.855c0-1.025.728-1.855 1.625-1.855s1.625.831 1.625 1.855zM41.329 18.087c0 1.025-.728 1.855-1.625 1.855s-1.625-.831-1.625-1.855c0-1.025.728-1.855 1.625-1.855s1.625.831 1.625 1.855zM17.646 28.29a1.856 1.856 0 1 1-3.712-.002 1.856 1.856 0 0 1 3.712.002zM21.361 25.971a1.858 1.858 0 0 1-3.715 0c0-1.025.832-1.855 1.858-1.855s1.858.831 1.858 1.855zM26.005 23.188c0 1.025-.832 1.855-1.858 1.855s-1.858-.831-1.858-1.855c0-1.025.832-1.855 1.858-1.855s1.858.831 1.858 1.855zM29.72 20.87c0 1.025-.832 1.855-1.858 1.855s-1.858-.831-1.858-1.855c0-1.025.832-1.855 1.858-1.855s1.858.831 1.858 1.855zM10.216 27.826a1.856 1.856 0 1 1-3.712-.002 1.856 1.856 0 0 1 3.712.002zM13.931 25.507a1.856 1.856 0 1 1-3.712-.002 1.856 1.856 0 0 1 3.712.002zM18.575 22.725c0 1.025-.832 1.855-1.858 1.855a1.856 1.856 0 1 1 0-3.71c1.025 0 1.858.831 1.858 1.855zM22.29 20.406c0 1.025-.832 1.855-1.858 1.855s-1.858-.831-1.858-1.855c0-1.025.832-1.855 1.858-1.855s1.858.831 1.858 1.855z"/></symbol><symbol id="icon-desktop-effect" viewBox="0 0 100 32"><path fill="#f8d24e" style="fill:var(--color2,#f8d24e)" d="M93.369 32.083a9.453 9.453 0 0 1-.358-.906l.118-.069-.262-.025c-.377-.037-.561-.245-.531-.624.026-.332.227-.474.551-.459.381.017.467.259.446.583-.006.094-.017.188-.026.293.003.004.017.031.039.04.239.097.584.125.696.302.185.29-.006.598-.236.843a2.401 2.401 0 0 1-.437.023zM85.203 32.083c-.075-.08-.098-.176-.156-.238-.24-.252-.17-.529-.001-.745.152-.194.409-.295.651-.104.24.189.375.424.193.731-.062.105-.13.207-.167.333-.142.022-.313.022-.519.022zM98.121 32.083c-.063-.073-.081-.15-.117-.218-.142-.272-.152-.574.103-.73.169-.104.517-.125.66-.017.21.158.348.458.139.756-.04.057-.085.109-.101.186-.197.023-.422.023-.685.023zM82.786 32.083c-.119-.18-.228-.353-.28-.542-.075-.274.053-.546.302-.59.198-.035.528.079.624.235.092.15-.03.441-.08.664-.016.071-.103.125-.13.21a2.401 2.401 0 0 1-.437.023zM100.083 31.212c-.13.093-.27.21-.386.19-.199-.034-.45-.107-.553-.252-.091-.129-.078-.421.012-.564.086-.136.324-.206.507-.24.112-.021.247.082.396.1.024.223.024.475.024.766zM41.046.083c.093.184.2.372.189.552-.011.178-.104.452-.229.498-.165.061-.456.002-.583-.119-.122-.117-.131-.379-.134-.579-.002-.101.119-.203.156-.329.17-.024.367-.024.602-.024zM.083 29.621c.029-.029.074-.004.086-.015.272-.257.554-.313.808.004.19.238.185.509-.033.735-.289.3-.56.178-.837-.039-.024-.197-.024-.422-.024-.685zM95.787 32.083c-.092-.117-.2-.239-.19-.352.017-.207.051-.454.177-.596.097-.109.371-.152.522-.098.229.081.344.312.284.576-.032.144-.093.281-.11.446-.195.025-.42.025-.683.025zM38.892 1.857c.065.04.111.072.154.068.487-.05.729.18.708.656a.365.365 0 0 0 .116.254c.248.219.414.462.198.775-.134.195-.298.398-.605.24-.349-.18-.456-.434-.318-.766l-.507-.444-.107.034.05.89c.358.272.445.544.243.888-.15.256-.386.265-.613.193-.299-.096-.369-.44-.209-.986-.463-.199-.936-.391-1.399-.606-.27-.125-.352-.567-.178-.831.168-.253.48-.291.745-.094.228.17.455.339.689.5.024.016.109-.016.13-.049.021-.031.007-.097-.01-.14-.199-.507.06-.934.531-.845.131.025.241.157.381.264zM31.927 7.217c-.375-.244-.424-.501-.18-.858.156-.228.518-.264.746-.073.273.229.224.591-.133.998.465.321.501.468.246 1.011.509.106.742.383.628.747a.564.564 0 0 1-.759.364c-.283-.108-.346-.498-.147-.911-.013-.021-.023-.056-.041-.062-.709-.223-.802-.609-.266-1.111a.807.807 0 0 0 .03-.029.968.968 0 0 1-.123-.075zM25.656 9.18l-.338.321.468.751c.133.022.374.025.58.111.105.044.183.232.209.368.058.308-.157.566-.466.603-.381.045-.58-.178-.633-.714-.503.093-.716-.015-.83-.421-.087-.31.035-.509.428-.662-.305-.106-.527-.273-.444-.616.066-.274.188-.525.541-.502.346.023.489.231.487.737-.007.031 0 .025 0 .025zM34.651 6.917c-.631-.063-.746-.5-.387-1.012l-.441-.717c-.153.012-.387.063-.609.033-.096-.013-.193-.182-.248-.3a.522.522 0 0 1 .307-.729c.334-.119.59.085.753.602.387-.156.767-.084.875.167.132.306-.032.687-.252.787.131.154.35.309.417.514.099.302-.037.563-.416.655zM46.107 24.861c.257-.288.539-.28.785-.082.298.239.251.532-.098.933.456.188.601.466.472.906.439.05.676.268.639.588-.037.325-.367.6-.648.54-.362-.077-.491-.383-.397-.771-.22-.185-.498-.306-.553-.494-.061-.206.082-.473.14-.726-.336-.126-.586-.525-.34-.895zM27.939 9.994c.297-.146.573-.137.704.133a.806.806 0 0 1-.002.632c-.066.131-.339.243-.502.223-.313-.039-.443-.289-.374-.644l-.345.21c.241.414.544.85-.156 1.112-.255.095-.493-.066-.569-.289-.116-.341-.003-.646.394-.805-.352-.198-.434-.505-.292-.796.076-.154.344-.301.525-.3.379.003.481.294.42.672.077-.066.12-.103.196-.148zM52.492 25.75c.453.066.523.374.518.726.414-.089.751.096.821.437.045.22-.227.631-.442.669-.313.054-.582-.235-.671-.721-.694-.065-.694-.065-.733-.589-.366-.009-.666-.103-.656-.574.007-.295.136-.477.408-.525.312-.054.527.081.602.41.014.061.079.111.154.167z"/><path fill="#f8d24e" style="fill:var(--color2,#f8d24e)" d="M31.536 8.922c-.012.068-.008.149.016.156.305.083.454.274.449.592-.006.343-.207.603-.499.573-.314-.032-.545-.184-.503-.56.007-.068.001-.137.001-.14-.275-.065-.544-.08-.754-.199-.107-.06-.157-.307-.151-.467.011-.29.871-.914 1.161-.877.393.05.53.454.281.922zM53.461 26.151c-.307-.132-.432-.357-.367-.635.056-.238.173-.465.501-.441.078.006.161-.082.244-.122.326-.155.73.015.772.385.028.244.15.373.292.527.218.236.17.521-.004.721-.104.12-.389.197-.53.139-.16-.065-.253-.299-.367-.466-.026-.039-.016-.103-.022-.153-.174.02-.331.038-.52.044zM78.489 26.247c-.298-.097-.564-.172-.579-.545-.014-.352.234-.458.462-.607.261-.17.517-.348.769-.53.293-.211.601-.204.776.076.152.244.178.54-.091.729-.257.18-.554.303-.754.409a8.66 8.66 0 0 1-.583.468zM43.583 14.069c-.191-.068-.471-.082-.551-.216-.106-.176-.055-.447-.074-.718-.106-.065-.379-.142-.483-.319-.111-.189-.063-.472-.114-.76-.26-.594-.26-.594.28-.956.011-.008.024-.013.036-.02.305.052.317.285.287.556a7.115 7.115 0 0 1-.269.209l.149.151c.1.008.2.016.313.083-.005.254-.041.449-.033.643.004.093.089.183.137.274.452-.046.669.192.719.653-.036.063-.049.085-.058.109 0 0-.002-.006-.027-.001-.12.107-.215.21-.31.312zM25.646 9.189l.357-.333c-.09-.197-.218-.369-.239-.554-.016-.139.079-.399.169-.42.234-.055.559-.102.725.018.321.232.203.626-.164.916.086.257.237.495.221.72-.019.26-.255.454-.542.416-.395-.052-.529-.337-.513-.742-.005-.031-.012-.025-.015-.021zM9.581 28.684c-.102.238-.206.443-.301.632.28-.021.515.178.528.497.007.182-.155.464-.315.534-.161.071-.487.006-.61-.123-.261-.274-.146-.595.107-.852-.134-.107-.271-.182-.362-.294-.229-.281-.157-.605.177-.835.292-.202.479.015.663.194.055.054.075.142.113.247zM45.673 11.507c.599.179.716.448.435 1.033-.004.026.003.02.003.02-.282.148-.553.162-.772-.102-.234-.282-.141-.564-.02-.742-.199-.176-.451-.307-.549-.511a.48.48 0 0 1 .25-.659c.154-.06.413-.01.556.09.282.197.237.487.035.801-.053.069-.066.097-.08.125l.142-.056zM33.356 7.583c-.504-.221-.557-.411-.298-.94-.436-.405-.538-.751-.218-.994.158-.12.506-.139.688-.047.314.16.285.447.082.742.138.316.323.561.336.814.015.305-.213.485-.589.425zM11.463 26.751c.49.356.502.689.067 1.05.318.073.597.219.539.586-.029.187-.175.453-.325.499-.177.054-.498-.024-.61-.163-.237-.294-.115-.607.202-.848-.382-.095-.578-.336-.551-.688.029-.373.29-.494.677-.436zM44 27.897c.055-.232.109-.429.168-.642-.28-.104-.621-.276-.484-.716.056-.18.274-.398.446-.426.158-.025.442.142.513.296.14.304.076.626-.34.832.4-.008.655.085.698.47.033.298-.068.538-.353.612-.312.081-.559-.049-.649-.424zM45.083 27.153c-.077-.431.172-.59.491-.639.262-.04.504.341.516.754.607.171.838.395.736.741-.093.316-.307.477-.652.404-.324-.069-.467-.376-.368-.785-.424.089-.637-.04-.723-.476zM29.912 9.988c-.514.406-.816.295-1.024-.363-.121.068-.238.177-.371.201-.55.1-.758-.252-.562-.898-.032-.021-.039-.014-.039-.014.13-.055.255-.134.39-.159.37-.069.585.18.626.71.203-.236.401-.514.754-.29.275.175.416.426.226.789-.003.031-.001.024-.001.024zM5.102 28.918c-.184.266-.471.267-.665.113-.166-.132-.219-.408-.353-.684-.455-.046-.599-.168-.584-.597.012-.331.181-.51.517-.498.459.017.503.341.486.695.728.15.875.366.622.959-.027.021-.024.013-.024.013zM97.487 29.051c.016.566-.113.77-.461.782-.473.016-.602-.218-.475-.894-.386-.023-.789-.041-.801-.577-.008-.332.151-.514.486-.528.329-.014.511.136.513.477v.343c.239.12.483.242.737.398zM10.424 28.592c.287.087.401.267.413.55.012.259-.032.494-.315.537-.177.027-.409 0-.549-.099-.312-.222-.166-.778.225-.95-.426-.114-.617-.324-.513-.7.047-.172.273-.357.454-.407.129-.036.404.105.459.233.074.171.01.409-.021.614-.01.069-.101.126-.154.222zM94.185 30.252c-.277.261-.529.14-.72-.093-.186-.226-.025-.681.277-.898-.304-.423-.338-.825-.083-1.01.231-.167.585-.106.762.132.196.264.083.615-.287.891.348.302.382.614.075.967-.028.018-.025.011-.025.011zM44.286 12.3c-.536.025-.765-.263-.651-.82-.441-.144-.644-.444-.53-.782.104-.309.372-.446.684-.349.299.093.42.394.301.75.67.414.74.805.198 1.183-.007.024-.002.019-.002.019zM49.071 26.675c.168-.004.365-.065.498.001.199.099.353.287.488.48.645.166.811.355.601.845-.06.14-.253.305-.39.309-.169.006-.42-.1-.498-.236-.111-.195-.2-.311-.432-.376-.363-.102-.448-.364-.337-.834 0-.03-.006-.024.027-.037a.348.348 0 0 0 .054-.164.17.17 0 0 1-.011.012zM42.333 13.105c.025.386-.093.629-.485.643-.424.015-.505-.108-.522-.761-.552-.245-.693-.452-.562-.851.094-.287.332-.336.589-.3.471.065.389.438.396.664.227.222.405.396.584.605zM3.042 29.071c-.279-.105-.671-.042-.709-.511-.029-.352.171-.623.474-.642.324-.021.541.235.524.622-.004.089-.024.177-.039.286.301.013.652-.038.708.407.047.377-.139.655-.465.683-.322.028-.54-.22-.535-.612a.9.9 0 0 1 .041-.233z"/><path fill="#f8d24e" style="fill:var(--color2,#f8d24e)" d="M49.003 26.832c-.086.026-.173.064-.264.081-.453.084-.635-.105-.675-.698-.537-.1-.691-.257-.645-.685.033-.306.214-.462.524-.445.457.025.492.352.478.698.599.138.664.22.655.857-.006.036.002.028-.022.034a.505.505 0 0 0-.06.167l.009-.009zM36.834 4.706c-.038-.093-.063-.184-.119-.209-.3-.138-.448-.367-.368-.684.082-.322.314-.455.655-.399.312.052.461.379.348.793.417.15.559.37.48.763-.064.321-.3.4-.579.359-.33-.048-.445-.275-.417-.623zM51.738 27.433c-.62.494-1.015.112-1.007-.498-.451-.011-.61-.273-.56-.731.002-.034-.004-.029.027-.045a.694.694 0 0 0 .05-.245.17.17 0 0 1-.011.012c.054-.001.115.014.161-.004.421-.169.569-.102.79.294.087.155.296.247.366.405.103.234.132.5.185.786-.008.033-.001.027-.001.027zM54.924 25.251c-.088-.08-.189-.155-.189-.23 0-.231-.017-.491.085-.679.053-.098.392-.147.515-.073.157.095.23.333.328.515.023.042.003.107.003.156.543.211.71.683.341.994-.125.105-.372.172-.514.121-.141-.051-.226-.269-.325-.42-.079-.121-.141-.253-.244-.385zM21.329 11.75c-.442-.093-.442-.093-.509-.429-.268-.19-.529-.285-.617-.465-.074-.152-.008-.444.102-.599.226-.317.748-.215.845.163.046.178.073.23.263.263.306.053.493.305.402.599-.058.185-.295.315-.486.47zM1.931 29.917s-.012-.038.014-.067a.568.568 0 0 0 .051-.158l-.075-.058-.057.138c-.339.184-.53-.01-.698-.271-.163-.253-.091-.503.12-.637.157-.1.441-.146.599-.071.303.145.331.453.269.787.465.082.608.396.73.732a.606.606 0 0 1-.204.174c-.118.018-.191.05-.264.082a2.855 2.855 0 0 1-.46-.381c.006-.115-.01-.193-.026-.272zM81.934 25.568c-.229-.011-.547.066-.666-.054-.18-.18-.221-.499-.33-.783-.09-.015-.294-.048-.497-.136.246-.236.491-.417.736-.599l.054.574c.276-.136.544-.103.74.195.19.29.065.533-.075.79.032.019.04.012.04.012zM35.002 4.431c.317-.501.527-.577 1.034-.255.158.101.285.395.27.588-.02.263-.226.456-.553.402-.401-.066-.705-.23-.75-.712V4.43zM43.612 14.076c.066-.109.161-.212.284-.318.012.074-.004.151-.003.147.238.108.535.151.659.32a.5.5 0 0 1-.181.75c-.16.084-.475.07-.609-.039-.226-.183-.285-.482-.073-.758.013-.017.025-.051.017-.064-.011-.017-.042-.022-.094-.039zM94.227 30.272c-.042-.02-.045-.013-.047-.014.126-.003.256.009.381-.012.321-.053.539.111.573.387.024.193-.072.477-.216.592-.126.1-.459.101-.586.001-.195-.154-.365-.417-.166-.715a.369.369 0 0 0 .062-.24zM5.144 28.94c-.042-.021-.045-.014-.048-.014.125-.003.253.006.378-.011.286-.039.536.072.552.341a.91.91 0 0 1-.263.647c-.101.094-.474.069-.561-.037-.124-.152-.112-.426-.128-.649-.006-.082.072-.17.07-.276zM23.487 9.259c.169-.03.348-.11.506-.079.379.072.523.37.406.702-.065.183-.297.406-.476.429-.324.041-.499-.205-.506-.539v-.238c0-.032-.006-.025.026-.039a.682.682 0 0 0 .054-.246.17.17 0 0 1-.011.012zM95.413 29.593c-.263-.048-.581.102-.752-.259-.128-.27-.121-.546.101-.689.167-.107.472-.119.661-.041.259.107.309.382.191.654-.026.061-.061.118-.118.221-.045.067-.065.09-.084.114zM95.414 29.626a.248.248 0 0 1 .077-.117c.314-.079.621-.134.807.177.126.211.159.483-.04.66a.73.73 0 0 1-.519.171c-.278-.036-.445-.24-.403-.549.014-.105.052-.206.078-.342zM44.835 13.274c.097-.013.196-.045.29-.034.198.023.51.01.564.117.1.2.111.498.036.711-.039.112-.338.18-.522.185-.289.008-.406-.192-.369-.47.021-.16.063-.317.053-.497-.043-.022-.054-.014-.054-.014zM43.675 22.834c-.255-.15-.4-.336-.34-.621.065-.306.245-.489.569-.457.294.03.55.385.487.639-.099.398-.332.549-.716.439zM84.252 24.095c.22.071.502.081.644.227a.46.46 0 0 1-.084.712c-.165.105-.503.124-.649.02s-.162-.406-.208-.627c-.012-.058.074-.136.122-.232.006-.028 0-.022.028-.025.07-.031.111-.059.151-.084-.002.003-.003.01-.003.01zM87.814 30.599c.139-.005.301-.058.412-.005.188.09.442.221.486.385.046.17-.068.494-.212.576-.165.095-.499.075-.649-.039-.127-.097-.117-.399-.125-.612-.003-.089.103-.183.128-.293-.032-.019-.04-.012-.04-.012zM43.506 15.659c-.129.03-.277.116-.382.079-.21-.074-.486-.173-.564-.342-.072-.153.018-.506.153-.598.158-.107.481-.099.664-.007.224.114.281.387.151.647a.422.422 0 0 0-.06.206c.032.022.039.015.039.015zM43.023 20.333c-.37-.099-.496-.331-.402-.655.088-.301.29-.505.632-.42.28.069.445.274.41.574-.041.343-.222.553-.639.501z"/><path fill="#f8d24e" style="fill:var(--color2,#f8d24e)" d="M84.085 24.164c-.539-.013-.84-.31-.665-.707.08-.181.278-.409.442-.426.163-.017.431.167.505.33.067.15-.061.389-.109.588-.009.037-.045.068-.037.125.031.022.032.015.013-.017-.065.017-.112.067-.159.116l.009-.008zM77.653 25.031c-.361-.198-.38-.459-.239-.773.142-.317.402-.309.661-.218s.391.3.326.578c-.09.38-.33.543-.748.413zM46.101 12.569c.278-.087.6-.162.768.125.101.174.091.473.018.674-.105.287-.39.263-.637.17-.263-.1-.378-.304-.311-.583.028-.115.093-.22.157-.363.015-.033.008-.027.005-.023zM57.315 24.939c-.227-.316-.187-.636.067-.816.152-.108.501-.097.659.011.134.092.188.408.159.608-.04.274-.275.396-.561.338-.104-.021-.201-.077-.324-.141zM85.686 26.022c-.356.172-.711.062-.837-.23-.115-.266.072-.731.354-.755.185-.016.444.075.562.212.196.226.176.516-.079.773zM40 6.908c-.129.192-.23.426-.394.485-.15.053-.412-.033-.546-.148-.209-.179-.2-.46-.009-.655.123-.126.329-.244.494-.239.29.009.447.224.455.558zM22.113 9.571c.222.388.163.689-.138.849a.544.544 0 0 1-.721-.235c-.147-.312-.027-.682.309-.774.151-.041.349.087.55.16zM22.842 11c-.369-.062-.567-.278-.491-.6a.767.767 0 0 1 .411-.467c.32-.122.556.07.647.392.078.275-.184.592-.567.674zM42.678 25.499c.43-.139.722-.032.805.3.073.293-.027.555-.3.685-.307.146-.696-.034-.732-.36-.021-.197.123-.413.227-.626zM50.176 26.169c-.096.026-.194.058-.294.078-.352.071-.622-.105-.696-.45a.546.546 0 0 1 .427-.629c.331-.057.589.153.636.522.007.055 0 .111-.006.201-.006.034.002.027-.026.038a.829.829 0 0 0-.05.245l.01-.005zM82.415 27.985c-.192.126-.421.334-.563.286-.181-.061-.381-.317-.408-.511-.023-.165.15-.429.31-.523.119-.07.428.002.523.117.117.142.099.395.138.632zM19.746 12.234c.017-.273-.01-.536.086-.741.045-.097.359-.156.494-.099.148.063.284.266.327.433.06.234.036.468-.267.604-.287.129-.459.032-.64-.198zM91.136 28.736c.197-.358.464-.393.769-.235.276.144.316.393.221.663-.104.293-.356.392-.624.324-.361-.092-.484-.364-.365-.752zM80.018 25.456c.392-.353.587-.353.872-.027.204.233.169.547-.147.769-.121.085-.397.113-.491.034-.15-.126-.214-.359-.296-.555-.02-.049.03-.127.062-.221zM84.174 25.75c.438-.028.56.239.569.562.008.315-.186.5-.502.518-.365.021-.525-.261-.555-.535-.029-.262.085-.545.488-.546zM45.783 24.76c-.172.378-.464.33-.721.226-.335-.135-.282-.485-.202-.713.056-.16.334-.326.521-.336.282-.014.443.217.451.513a1.09 1.09 0 0 1-.048.309zM41.417 26.598c.013-.414.284-.536.578-.498.326.042.439.309.424.634-.016.339-.247.507-.516.494-.312-.015-.566-.199-.486-.63zM83.103 24.817c-.21-.02-.459.025-.624-.072-.35-.206-.271-.54-.174-.875-.043-.021-.053-.012-.053-.012.038.018.098.062.111.051.275-.238.553-.263.782.038s.137.588-.082.858c.032.019.04.013.04.013zM43.363 24.32c-.264-.429-.267-.743.022-.877.17-.079.446-.097.597-.009.185.108.312.318.21.616-.094.274-.22.397-.495.364a1.488 1.488 0 0 1-.334-.094zM82.935 30.777c-.238-.057-.575-.086-.634-.228-.081-.198-.01-.517.111-.713.065-.105.395-.125.561-.063.128.047.228.271.266.434.056.234.017.471-.305.571zM58.886 24.146c-.562-.18-.758-.483-.53-.837a.71.71 0 0 1 .494-.286c.138-.006.352.16.409.3.065.159.027.386-.034.56-.037.105-.203.166-.338.263zM42.237 22.592c.289.054.692-.183.831.246.065.2.045.5-.068.661-.083.119-.429.177-.573.101-.218-.115-.465-.331-.267-.668.019-.032.005-.082.007-.153 0-.029-.006-.022.027-.035a.348.348 0 0 0 .054-.164.17.17 0 0 1-.011.012z"/><path fill="#f8d24e" style="fill:var(--color2,#f8d24e)" d="M42.17 22.747c-.158.046-.326.153-.479.135-.389-.045-.488-.313-.447-.681.035-.316.252-.432.495-.439.336-.009.505.215.511.552.001.069-.001.138-.007.243-.006.035.002.028-.022.033a.505.505 0 0 0-.06.167l.009-.011zM42.01 19.919c.313.098.59.187.579.579-.008.298-.136.534-.409.562-.178.018-.503-.119-.537-.246-.06-.227.036-.503.099-.751.016-.063.154-.096.268-.144zM35.22 3.43c-.05-.418.191-.765.492-.762.271.002.621.386.522.651-.075.2-.282.436-.471.48-.139.032-.344-.22-.542-.368zM45.95 18.593c-.153.304-.347.374-.645.267-.402-.145-.35-.482-.281-.747.039-.151.318-.352.468-.336.264.028.544.177.507.548a1.27 1.27 0 0 1-.049.267zM46.752 14.905c-.191.253-.451.382-.671.186-.164-.146-.3-.435-.284-.648.024-.318.377-.457.704-.357.257.078.374.434.252.819zM39.884 9.062c-.318.166-.633.167-.773-.127-.089-.187-.06-.537.067-.689.102-.123.455-.133.65-.063.326.118.336.438.057.879zM43.496 15.67c.314-.194.637-.258.879.092.151.219.156.502-.055.69-.119.107-.345.192-.487.154-.274-.074-.475-.275-.414-.611.017-.091.054-.178.084-.302.003-.034-.004-.027-.007-.023zM41.169 8.088c-.189.158-.378.383-.562.379-.15-.003-.35-.257-.427-.441-.109-.264.062-.498.304-.593.146-.057.416-.052.499.042.124.14.131.383.186.614zM40.371 13.568c-.511.015-.813-.251-.687-.624.06-.178.268-.368.45-.428.324-.107.506.151.577.422.07.265-.033.499-.341.631zM42.913 17.333c-.408-.053-.574-.308-.569-.646.005-.309.315-.526.65-.418.172.055.361.283.405.466.076.319-.123.532-.486.598zM38.062 7.141c.219.054.475.075.593.214.212.248.1.659-.15.811-.293.179-.528.057-.707-.17-.169-.213-.034-.629.263-.855zM28.085 8.153c-.12-.323-.036-.567.217-.72.301-.182.596-.041.701.23.076.195.023.522-.103.694-.168.229-.457.181-.681-.015a.657.657 0 0 1-.135-.189zM13.144 27.365c.131.452-.005.847-.312.868-.181.012-.457-.059-.534-.188-.098-.162-.105-.451-.025-.627.06-.131.315-.208.494-.238.108-.018.238.099.376.184zM6.334 28.163c.055.002.123.026.162.002.282-.173.57-.077.667.16.087.213.054.551-.065.751s-.402.194-.638.03c-.268-.187-.236-.426-.167-.68.021-.078.073-.147.08-.245-.031-.024-.038-.017-.038-.017zM43.648 27.464c-.12.251-.227.511-.526.44-.167-.04-.377-.177-.435-.323-.066-.167-.055-.458.052-.575.118-.128.442-.22.572-.146.17.098.239.374.336.603zM40.301 9.354c.104.22.268.44.234.623-.049.264-.271.486-.595.409-.351-.084-.521-.422-.401-.719.136-.337.399-.454.761-.312zM37.268 9.532c.489.161.68.478.465.812-.1.155-.352.309-.521.296-.161-.013-.403-.227-.431-.385-.034-.185.11-.412.209-.604.031-.061.166-.068.279-.119zM42.494 10.584c-.344.196-.57.023-.717-.212a.532.532 0 0 1 .087-.688c.195-.19.434-.183.646-.041.261.174.327.424.178.711a.864.864 0 0 1-.194.23zM14.275 26.233c.028.291.068.566.012.821-.018.082-.313.181-.439.141-.164-.052-.383-.221-.404-.365-.029-.2.042-.499.185-.615.126-.102.409-.011.647.018zM46.593 10.916c.392-.217.576-.007.748.276.166.273.059.524-.152.627-.179.088-.5.083-.657-.027-.245-.171-.315-.47-.056-.739.035-.037.056-.087.117-.137zM25.397 11.118c.219.556.062.894-.404.869a.69.69 0 0 1-.477-.261.463.463 0 0 1 .148-.663c.14-.088.358-.062.541-.067.057-.002.116.06.192.121zM83.092 24.828c.272-.009.54.046.607.343a.971.971 0 0 1-.063.612c-.115.224-.652.254-.751.033-.1-.223-.049-.52-.032-.782.004-.056.145-.104.237-.185.014-.03.006-.024.002-.02zM77.188 24.815c.278.588.127.947-.377.924-.161-.007-.424-.121-.45-.232a.892.892 0 0 1 .101-.643c.08-.119.342-.126.526-.161.051-.01.117.057.2.112zM23.42 9.497c-.53.385-.901.124-.998-.248-.075-.283.125-.596.407-.663.312-.074.552.145.664.64-.006.032.002.024-.023.032a.96.96 0 0 0-.058.249l.009-.011z"/><path fill="#f8d24e" style="fill:var(--color2,#f8d24e)" d="M6.345 28.152c-.174.242-.437.357-.696.237-.148-.069-.295-.317-.294-.483.001-.186.128-.446.281-.533.136-.078.441-.029.564.083.156.143.321.384.135.676 0 .031.008.024.011.02zM8.335 27.678c.189.365.064.661-.225.784-.156.066-.467-.055-.618-.191-.28-.252-.148-.573.096-.757.242-.183.543-.185.748.164zM41.831 18.572c.178-.314.514-.435.746-.279.259.173.329.419.209.715-.118.294-.379.405-.625.305-.27-.11-.477-.352-.331-.74zM85.643 28.694c-.019.306-.102.588-.413.621-.174.019-.452-.071-.525-.201-.094-.167-.089-.448-.012-.631.051-.121.299-.205.467-.222.262-.026.422.141.483.433zM83.864 28.918c.478.052.667.238.636.592-.031.348-.276.531-.654.49a.473.473 0 0 1-.354-.694c.08-.147.224-.259.373-.388zM8.23 29.882c-.39.387-.839.221-.938-.319-.045-.245.043-.512.369-.561.358-.054.654.126.667.421.006.142-.052.287-.098.46zM90.998 29.528c.055.429-.176.637-.515.676-.266.031-.466-.133-.516-.436-.054-.33.089-.546.38-.649.34-.12.528.085.651.409zM87.825 30.589c-.434-.075-.738-.333-.641-.625.067-.204.261-.436.452-.504.132-.047.418.123.52.275.086.127.039.377-.016.552-.034.106-.196.171-.313.284-.013.03-.005.023-.002.019zM84.502 31.071c-.191.253-.441.374-.673.188-.154-.123-.3-.381-.286-.565.031-.4.336-.555.708-.441.256.078.373.434.251.818zM81.362 30.514c.255-.008.511-.049.703.044.109.053.175.337.147.497-.063.359-.387.528-.691.419-.324-.117-.431-.406-.279-.761.026-.061.063-.118.121-.2zM45.666 20.099c.038.408-.179.62-.505.63-.257.008-.466-.159-.501-.48-.037-.344.085-.588.41-.652.335-.066.532.138.595.502zM42.974 18.431c-.184-.392-.073-.827.242-.909.301-.078.505.093.643.369.143.285-.005.476-.19.64-.238.21-.469.137-.695-.1zM44.578 20.831c-.171.217-.312.495-.522.563-.294.095-.498-.142-.553-.448-.053-.297.075-.539.358-.599.27-.057.604-.088.65.347.004.036.044.069.067.136zM82.28 23.836c-.029.021-.018.013-.017.01-.152.155-.286.313-.555.175-.205-.105-.357-.201-.38-.458a.502.502 0 0 1 .335-.55c.137-.054.379-.058.465.027.132.13.183.352.242.543.02.064-.039.153-.09.253zM42.357 21.359c.201-.349.477-.346.739-.183.288.179.306.463.15.749-.167.306-.42.31-.698.166-.312-.161-.35-.408-.191-.733zM56.812 23.617c.212.534.017.909-.45.871-.154-.013-.338-.136-.435-.264-.153-.203-.12-.457.093-.604.148-.103.352-.142.536-.17.071-.011.158.089.255.167zM78.585 23.613c.151-.354.386-.504.732-.358.325.136.326.462.242.698-.059.165-.328.36-.503.359-.389-.002-.497-.311-.472-.698zM97.97 30.264c-.049-.398.167-.789.44-.738.21.039.467.241.553.437.133.304-.088.546-.378.656-.302.114-.473-.079-.615-.354zM84.057 28.014c-.204-.437-.113-.727.261-.874.332-.131.488.092.623.34.151.277-.004.474-.19.637-.238.207-.469.135-.694-.102zM4.984 29.959c.036.325-.03.615-.333.687-.167.04-.434-.051-.558-.178a.528.528 0 0 1 .074-.8c.273-.191.589-.089.818.292zM38.027 9.892c-.275-.447-.277-.828.021-.945.179-.071.528-.066.606.044.123.173.153.482.094.698-.062.225-.292.364-.57.234-.035-.016-.082-.008-.151-.03zM92.15 30.04c-.048.572-.428.868-.757.605-.156-.125-.307-.396-.278-.571.03-.18.288-.455.436-.449.2.008.391.246.599.415zM19.585 13.634c-.031-.37.076-.654.429-.703.284-.04.556.092.567.434.006.186-.034.474-.151.539-.163.091-.423.039-.633.002-.082-.014-.141-.154-.212-.271zM42.018 24.963c-.11-.286-.107-.545.123-.713.118-.086.358-.151.455-.088.17.109.372.322.375.495.004.17-.196.375-.354.511-.253.218-.413-.034-.6-.205zM84.762 30.197c-.01-.432.236-.816.515-.761.175.035.356.213.465.374.158.232.048.462-.148.635-.185.163-.389.172-.586.016a1.552 1.552 0 0 1-.245-.264zM29.907 9.996c.153-.054.306-.138.466-.156.371-.042.557.13.584.497.02.277-.229.573-.487.58-.33.009-.547-.206-.55-.562-.001-.105.038-.211.025-.341-.033-.025-.035-.018-.038-.017zM88.531 28.856c.265-.135.523-.199.672.073a.993.993 0 0 1 .113.605c-.064.365-.393.358-.651.283-.25-.074-.39-.3-.327-.582.028-.126.108-.241.193-.379zM45.274 16.278c.244-.077.494-.207.688-.148.136.041.276.343.265.519-.011.17-.182.392-.341.47-.122.059-.365-.031-.503-.128-.237-.168-.209-.432-.108-.712zM40.415 11.519c-.036.304-.126.556-.445.565-.161.004-.367-.047-.478-.152-.264-.251-.199-.581.125-.837.301-.238.503-.046.686.176.05.061.074.143.112.248zM57.016 23.457c-.03-.337.026-.631.369-.696.286-.055.545.001.648.375.095.344-.097.553-.315.659-.28.137-.552.006-.702-.338zM39.019 12.777c-.482.063-.84-.231-.723-.591a.757.757 0 0 1 .394-.421.462.462 0 0 1 .624.309c.076.254.058.549-.295.704zM39.085 1.269c.29-.556.599-.667.887-.318.111.134.198.399.138.534-.08.18-.3.368-.488.404-.128.025-.315-.195-.454-.328-.058-.056-.059-.171-.084-.292zM44.244 24.667c.459-.01.461.323.445.585-.017.284-.182.523-.526.495-.338-.028-.498-.24-.495-.571.002-.354.195-.516.576-.508zM40.72 6.748c-.328.022-.572-.109-.606-.386-.024-.196.064-.479.207-.6.117-.099.416-.078.586-.002.38.169.301.62-.186.987zM37.237 7.834c.457.16.59.425.423.774-.146.306-.429.423-.699.218-.15-.114-.281-.367-.273-.551.012-.256.177-.487.548-.441zM33.838 8.75c-.482-.18-.605-.421-.434-.782.161-.341.388-.431.719-.213.135.089.295.361.249.457-.101.211-.326.363-.534.539zM85.084 23.851c.087-.345.298-.493.608-.426.139.03.351.137.368.238.044.254.122.572-.183.737-.126.068-.367.119-.44.052-.158-.146-.241-.373-.354-.601zM35.007 4.423c-.057.011-.134.004-.174.04-.269.241-.562.151-.705-.078-.107-.171-.096-.496-.004-.69.129-.274.426-.275.673-.112.311.205.232.504.174.821.032.028.034.021.037.02zM45.484 25.334c.407.094.501.38.415.689-.043.156-.24.335-.401.378-.285.076-.535-.032-.581-.384-.057-.428.108-.639.567-.683zM39.167 5.086c.158-.217.29-.448.488-.564.084-.049.346.11.461.235.213.231.135.622-.116.78-.233.148-.603.033-.755-.236a1.02 1.02 0 0 1-.08-.216zM39.333 10.585c-.116.216-.195.468-.36.555-.117.062-.423-.047-.515-.174-.108-.148-.152-.433-.08-.595.063-.142.353-.301.49-.263.182.051.312.286.465.476zM81.923 25.579c.038.004.079.004.121.005.252.007.56-.074.617.302.044.29.048.632-.277.737-.17.055-.486-.039-.602-.178-.224-.267-.178-.584.14-.846.012-.03.004-.024.001-.02zM91.082 30.699c.006.368-.047.67-.457.715-.331.036-.543-.155-.541-.46.001-.194.111-.472.262-.564.298-.181.57-.037.737.309zM51.728 27.443c.305-.33.608-.384.859-.148.254.239.259.533.043.758-.123.128-.404.209-.57.16-.137-.041-.22-.297-.305-.469-.033-.067-.006-.163-.012-.278-.006-.032-.013-.026-.016-.023zM86.806 30.349c.281.341.268.708-.026.904-.272.181-.564.129-.692-.153-.086-.19-.084-.498.016-.677.135-.241.422-.244.701-.074zM45.038 23.735c-.622-.003-.914-.383-.666-.813.143-.249.481-.333.746-.185.223.124.31.547.152.779-.053.078-.132.139-.231.22zM85.917 29.331c-.014-.358.131-.582.461-.571.27.009.53.099.544.468.012.316-.09.548-.408.598-.332.052-.588-.06-.597-.495zM40.528 4.818c-.068-.232-.165-.449-.136-.648.019-.127.217-.305.348-.317.165-.015.445.075.493.194a.906.906 0 0 1-.014.666c-.13.267-.406.276-.691.104zM45.5 21.728c-.095.404-.37.52-.687.417-.302-.098-.376-.392-.306-.683.07-.293.289-.432.588-.374.322.063.441.289.405.64zM59.527 22.266c.289-.175.555-.158.699.107.092.169.136.454.052.604-.081.146-.35.247-.54.252-.13.003-.361-.18-.376-.301-.025-.204.086-.425.165-.662zM45.035 16.996c.008.221.048.452-.04.61-.154.274-.427.333-.7.14a.572.572 0 0 1-.09-.827c.241-.264.49-.247.83.078zM38.078 5.519c.273-.335.541-.268.793-.021.195.19.182.596-.026.776-.248.215-.548.209-.714-.047-.109-.167-.046-.446-.052-.708zM6.492 29.718c.302-.104.576-.069.697.203.074.164.078.432-.012.575-.086.137-.333.236-.508.234-.137-.002-.347-.158-.392-.291-.081-.242-.084-.523.214-.722zM41.559 24.835c.35.194.472.583.299.845-.181.273-.537.349-.763.096a.793.793 0 0 1-.151-.62c.057-.246.298-.372.616-.32zM81.716 29.423c-.071-.518.062-.844.353-.823.199.014.507.14.552.283.063.201.002.54-.142.683-.22.217-.528.159-.763-.142zM23.583 8.561c-.026-.365.088-.596.445-.644.293-.039.482.111.547.377.071.29-.003.585-.305.683-.317.103-.592-.013-.688-.416zM27.928 8.903c-.13.085-.252.22-.398.253-.31.072-.542-.073-.609-.39-.078-.371.13-.664.45-.683.342-.02.536.176.545.553.002.069 0 .139.001.243 0 .035.008.028.011.024zM41.516 24.333c-.378-.091-.504-.345-.418-.653.046-.164.215-.362.371-.413.298-.097.541.065.608.379.088.408-.107.643-.562.687zM44.667 15.395c-.026-.365.088-.596.445-.644.293-.039.482.111.547.377.071.29-.003.585-.305.683-.317.103-.592-.013-.688-.416zM48.917 27.84c.007.384-.155.571-.514.577-.306.006-.446-.176-.483-.446-.044-.322.054-.585.414-.633.335-.044.556.102.582.502zM20.944 12.349c.289-.175.555-.158.699.107.092.169.136.454.052.604-.081.146-.35.247-.54.252-.13.003-.361-.18-.376-.3-.025-.205.086-.425.165-.662zM41.341 10.301c.299.198.295.48.214.722-.044.132-.255.289-.392.29-.175.002-.423-.097-.508-.234-.089-.143-.085-.411-.012-.575.122-.272.396-.307.698-.203zM44.866 13.252c-.031.021-.02.013-.019.01-.227.244-.466.224-.697.011-.237-.218-.2-.476-.063-.729.037-.069.108-.121.181-.212.018-.031.012-.027.011-.025.697.066.894.359.587.945zM86.082 26.789c-.078.243-.107.506-.254.641-.095.087-.423.055-.535-.047-.131-.119-.205-.38-.182-.563.019-.146.199-.334.348-.387.278-.1.493.06.622.357zM82.513 26.802c.239-.297.495-.456.815-.18.263.226.274.528.058.757-.122.13-.403.215-.57.168-.138-.039-.224-.295-.311-.466-.033-.066-.004-.163.007-.279zM44.093 19.501c-.104-.24-.216-.473-.223-.709-.003-.094.226-.268.356-.274.173-.007.456.071.505.189a.936.936 0 0 1-.012.673c-.102.233-.349.293-.626.12zM56.396 25.773c-.264-.316-.186-.603.052-.823.223-.206.545-.167.673.077.106.203.123.555.013.745-.154.266-.466.202-.738.001zM41.197 2.931c-.319.318-.61.325-.844.046-.171-.204-.131-.607.077-.777.241-.196.602-.163.738.116.081.165.039.39.029.615zM97.688 31.186c-.544.261-.869.114-.844-.375.009-.173.105-.404.237-.49.124-.08.413-.072.515.022.136.124.178.365.224.564.017.073-.07.169-.134.279zM89.734 30.211c.02.592-.263.934-.613.748-.173-.092-.331-.359-.344-.557-.01-.153.184-.4.343-.464.21-.084.501-.089.614.273zM83.605 28.062c.219.358.181.691-.084.849-.276.164-.577.148-.694-.155-.08-.207-.065-.561.066-.704.108-.117.449-.018.711.01zM37.869 6.838c-.207.267-.448.334-.706.189-.265-.148-.31-.409-.214-.68.092-.259.28-.412.566-.343.448.11.44.452.354.834zM38.167 11.657c-.423.261-.732.218-.891-.09-.126-.243.014-.675.289-.744.166-.042.479-.004.529.096.099.198.061.465.074.738zM92.477 28.983c.477-.233.864-.075.844.337-.009.186-.101.437-.24.527-.127.082-.444.055-.541-.05-.129-.14-.136-.4-.176-.613-.01-.052.057-.118.112-.201zM40.68 9.367c-.013-.563.211-.874.555-.768.166.051.391.233.406.375.022.201-.069.5-.219.608-.125.09-.405-.03-.614-.069-.045-.009-.078-.074-.128-.146zM81.171 23.965c-.24.213-.485.395-.744.602-.305-.288-.314-.605-.041-.824.221-.177.572-.092.785.222zM42.661 11.051c.003.035-.01.041-.021.048-.54.362-.54.362-.308.94-.355.011-.407-.285-.375-.513.049-.355.28-.582.704-.475zM2.899 30.285c-.137-.308-.28-.623-.717-.693.198.003.482-.056.625.059.12.096.078.396.092.633zM43.266 12.966c-.055-.061-.14-.151-.143-.244-.007-.194.028-.389.047-.616.32.221.317.513.096.86zM42.847 11.969c-.054-.023-.103-.073-.153-.124.078-.058.156-.117.263-.177-.016.09-.061.182-.11.301zM1.924 29.948a.435.435 0 0 1 .03.212.435.435 0 0 1-.03-.212zM2.445 30.576a.423.423 0 0 1 .208-.084.427.427 0 0 1-.208.084zM43.942 13.751c-.012-.017 0-.038.031-.07.006.012-.002.038-.031.07z"/><path style="fill:var(--color1,#000)" d="M45.657 11.491a.33.33 0 0 1-.126.072c.013-.028.026-.057.058-.101.029-.006.041.004.068.03zM49.027 26.828c-.02-.041-.008-.095.031-.159.018.042.01.094-.031.159zM50.197 26.159c-.024-.062-.017-.14.022-.234.024.062.017.14-.022.234zM1.879 29.789a.456.456 0 0 1 .042-.155l.075.058c-.009.043-.017.086-.049.138-.033-.002-.043-.013-.068-.041zM23.444 9.493c-.021-.066-.01-.146.029-.239a.344.344 0 0 1-.029.239zM84.104 24.17a.204.204 0 0 1 .132-.116c-.021.057-.063.085-.132.116zM42.194 22.745c-.02-.041-.008-.095.031-.159.018.042.01.094-.031.159z"/></symbol><symbol id="icon-arrow-right" viewBox="0 0 32 32"><path d="M8.51 3.254C8.184 3.63 8 4.14 8 4.671s.183 1.041.51 1.417l8.62 9.924-8.62 9.924c-.317.378-.493.884-.489 1.41s.187 1.029.51 1.4.76.583 1.216.587c.457.005.896-.198 1.225-.563l9.851-11.341c.326-.376.51-.886.51-1.417s-.183-1.041-.51-1.417L10.972 3.254c-.327-.376-.769-.587-1.231-.587s-.905.211-1.231.587z"/></symbol><symbol id="icon-hamburger-menu" viewBox="0 0 32 32"><path d="M26.733 14H5.267c-.7 0-1.267.425-1.267.95v.1c0 .525.567.95 1.267.95h21.466c.7 0 1.267-.425 1.267-.95v-.1c0-.525-.567-.95-1.267-.95zm0 6H5.267c-.7 0-1.267.425-1.267.95v.1c0 .525.567.95 1.267.95h21.466c.7 0 1.267-.425 1.267-.95v-.1c0-.525-.567-.95-1.267-.95zm0-12H5.267C4.567 8 4 8.425 4 8.95v.1c0 .525.567.95 1.267.95h21.466c.7 0 1.267-.425 1.267-.95v-.1c0-.525-.567-.95-1.267-.95z"/></symbol><symbol id="icon-logo" viewBox="0 0 34 32"><path fill="#f8d24e" d="M17.413 14.169c1.635-4.385-1.751-6.784-3.994-8.363-.43-.321-.858-.623-1.206-.898a4.206 4.206 0 0 1-1.31-1.939l-.008-.03a4.04 4.04 0 0 1-.188-1.236c0-.401.057-.788.163-1.155l-.007.029a.458.458 0 0 0-.133-.456.466.466 0 0 0-.476-.093l.003-.001a7.584 7.584 0 0 0-2.081 1.225 4.928 4.928 0 0 0-1.404 1.682l-.013.028a4.765 4.765 0 0 0-.509 2.152 5.752 5.752 0 0 0-1.1 1.133l-.011.016a4.147 4.147 0 0 0-.819 2.702v-.01a5.325 5.325 0 0 0-1.475 2.254l-.011.038a5.3 5.3 0 0 0-.143 2.751l-.006-.035a1.456 1.456 0 0 0-.602.704 1.434 1.434 0 0 0-.045.931l-.003-.01c.087.304.272.571.528.761s.567.292.886.289h.03v2.493c0 .253.102.496.283.675s.427.279.683.279h.75l1.223 10.473c.026.233.137.449.314.605s.405.243.643.243h5.089c.238-.001.466-.087.644-.244s.29-.371.318-.604l1.223-10.473h.75c.256 0 .502-.1.683-.279s.283-.422.283-.675v-2.493h.031c.403 0 .768-.162 1.034-.424.274-.27.428-.639.428-1.022v-.017c0-.398-.164-.757-.429-1.014l-.013.005zM6.399 6.214c.618 2.294 3.003 3.197 5.178 4.004a.47.47 0 0 0 .68-.225l.001-.003a.451.451 0 0 0-.162-.54l-.001-.001a.45.45 0 0 0-.185-.078h-.003c-2.342-.878-4.553-1.696-4.72-4.041a3.88 3.88 0 0 1 .366-1.899l-.01.024c.284-.6.695-1.099 1.2-1.48l.01-.007c.307-.254.649-.49 1.012-.694l.035-.018a5.438 5.438 0 0 0 .001.902l-.001-.02c.05.672.236 1.327.548 1.927a5.078 5.078 0 0 0 1.255 1.556l.008.007c.356.301.798.61 1.287.941 1.129.801 2.411 1.696 3.226 2.908.509.718.814 1.611.814 2.576 0 .623-.127 1.217-.357 1.757l.011-.029h-1.897c-3.909.001-8.401-1.068-9.289-4.061a3.33 3.33 0 0 1-.131-.934c0-.338.049-.665.142-.973l-.006.024a3.44 3.44 0 0 1 1.005-1.595l.003-.003-.021-.021zm3.518 14.455 1.434 1.416-1.434 1.417-1.433-1.425 1.433-1.408zm3.287 3.719-1.184 1.17-1.433-1.417 1.433-1.412 1.244 1.225-.06.432zm-3.287 3.248-1.433-1.417 1.433-1.417 1.434 1.417-1.434 1.417zm-.656-3.486-1.433 1.417-1.193-1.179-.052-.424 1.244-1.225 1.433 1.412zm-2.094 2.069-.287.284-.073-.645.361.361zm-.15 1.451.811-.802 1.574 1.569c.009.031.018.063.031.092H7.116l-.098-.86zm4.994-.802.811.801-.099.848h-2.381l1.669-1.65zm.944-.364-.287-.284.365-.361-.078.645zm.43-3.707-.717-.721.909-.899-.193 1.62zm-1.378-1.365-1.36-1.34h2.72l-1.36 1.34zm-4.183 0-1.36-1.34h2.721l-1.36 1.34zm4.633 9.058H7.373a.034.034 0 0 1-.03-.03l-.12-1.018h5.389l-.115 1.018a.034.034 0 0 1-.034.03h-.005zm3.935-14.774h-1.493a.478.478 0 0 0-.36.118.462.462 0 0 0-.153.342v.001a.466.466 0 0 0 .513.459h-.002.532v2.493a.034.034 0 0 1-.034.03H4.424a.034.034 0 0 1-.034-.03v-2.493h8.5a.468.468 0 0 0 .3-.149.457.457 0 0 0 0-.622.463.463 0 0 0-.299-.149H3.45a.536.536 0 0 1-.533-.308l-.001-.003a.518.518 0 0 1 .128-.599.533.533 0 0 1 .409-.135h-.002.974a.46.46 0 0 0 .299-.771.465.465 0 0 0-.3-.149h-.86a4.47 4.47 0 0 1 .066-1.976l-.007.031a4.535 4.535 0 0 1 .883-1.751l-.006.008c.3.924 1.072 2.188 3.004 3.193 1.815.937 4.217 1.416 7.14 1.416h1.716a.537.537 0 0 1 .408.136.524.524 0 0 1 .173.389v.001a.52.52 0 0 1-.172.387.532.532 0 0 1-.409.135h.032zM19.817 27.915l-.343.526.007.005.336-.531zm3.697.178.629-.014-.016-.727-.718.122.106.62zm.043 1.934.16.609.48-.127-.011-.496-.629.014zm-4.852.093.142-.613h-.004l-.138.613zm-2.395-1.069.407-.479-.001-.001-.405.48zm-.865-1.965.629.003v-.003h-.629zm.301-1.376-.565-.277v.001l.565.277zm1.929-1.645.223.587h.003l-.225-.587zm6.178-.16.627.049.041-.531-.517-.128-.151.61zm-.154 1.971-.117.619.69.13.055-.7-.627-.049zm-1.677-.806c-.944 0-1.737.1-2.317.356-.297.13-.567.314-.764.574a1.47 1.47 0 0 0-.299.893v.017-.001h1.257c0-.073.018-.114.045-.149a.673.673 0 0 1 .267-.182c.338-.149.92-.249 1.811-.249V25.07zm-3.38 1.838c0 .647.29 1.18.832 1.535l.687-1.054a.511.511 0 0 1-.261-.481h-1.259zm.84 1.539c.513.325 1.191.448 1.951.448v-1.259c-.656 0-1.055-.111-1.279-.252l-.673 1.063zm1.951.448c.747 0 1.476-.06 2.187-.181l-.21-1.24c-.64.109-1.299.164-1.977.164v1.257zm1.453-.788.043 1.934 1.257-.028-.043-1.934-1.257.028zm.512 1.312a9.365 9.365 0 0 1-2.383.287v1.258c.964 0 1.866-.107 2.702-.328l-.32-1.216zm-2.383.287c-.889 0-1.607-.07-2.168-.199l-.282 1.226c.684.157 1.505.231 2.451.231v-1.258zm-2.171-.199c-.601-.135-1.034-.277-1.323-.419l-.553 1.131c.415.203.956.371 1.6.515l.275-1.227zm-1.323-.419a3.832 3.832 0 0 1-.809-.521l.006.005-.813.959c.314.267.671.495 1.065.687l.552-1.13zm-.803-.517c-.428-.361-.647-.833-.644-1.482l-1.258-.006c-.005.989.353 1.828 1.089 2.449l.811-.961zm-.644-1.485c0-.423.083-.785.237-1.099l-1.129-.553a3.72 3.72 0 0 0-.366 1.653h1.258zm.236-1.098c.287-.582.791-1.033 1.587-1.335l-.446-1.175c-1.038.394-1.819 1.04-2.27 1.956l1.129.555zm1.59-1.337c.836-.321 1.771-.486 2.808-.486v-1.257c-1.173 0-2.261.186-3.259.57l.451 1.174zm2.808-.486c1.059 0 2.055.118 2.994.35l.302-1.22a13.314 13.314 0 0 0-3.228-.387h-.072.004v1.257zm2.518-.309-.154 1.972 1.254.097.154-1.971-1.254-.098zm.59 1.403a9.73 9.73 0 0 0-1.793-.19v1.259c.442 0 .961.053 1.559.166l.235-1.235zm6.137 1.004-.004.629.639.004-.007-.639-.628.007zm-.27-.817-.428.461.006.005.422-.466zm-1.567.062.436.454.004-.004-.44-.449zm-.381.743-.621-.102-.119.727.737.004.004-.629zm4.625 3.353.38.501.226-.171.021-.283-.627-.047zm-1.358.504-.135-.614-.004.001.139.614zm-4.716-.172-.215.591.005.002.21-.593zm-1.075-.571-.39.493.008.006.383-.498zm-.718-.903-.564.279.001.003.562-.282zm.737-3.814zm5.748-.682.252-.576-.006-.003-.245.579zm1.444 1.327-.566.275.001.004.565-.279zm.245 1.099.627.046.001-.023v-.023h-.629zm-.074 1.013-.003.629.587.003.043-.586-.627-.046zm-4.981-.024.004-.629-.821-.004.209.794.608-.161zm.713.878-.309.548.002.001.307-.549zm3.82-.215v-.629h-.126l-.116.048.242.58zm.331 0 .627.047.05-.676h-.678v.629zm-1.895-1.788c-.005-.455-.11-.943-.476-1.276l-.846.932c-.007-.007.007.001.026.055.018.058.037.154.038.302l1.258-.014zm-.471-1.27c-.33-.306-.763-.407-1.189-.407v1.257c.245 0 .32.059.334.071l.855-.921zm-1.189-.408c-.469 0-.904.146-1.244.48l.88.899c.069-.068.17-.121.365-.121v-1.259zm-1.24.477a1.913 1.913 0 0 0-.565 1.084l-.001.011 1.241.204a.66.66 0 0 1 .196-.391l-.871-.908zm.051 1.825 2.217.012.007-1.258-2.217-.012-.007 1.258zm4.248 2.223c-.138.105-.474.25-1.113.391l.27 1.228c.664-.146 1.232-.336 1.602-.617l-.759-1.003zm-1.116.391a7.95 7.95 0 0 1-1.759.206v1.257c.664 0 1.344-.08 2.037-.237l-.277-1.227zm-1.759.206c-.593 0-1.081-.028-1.47-.081l-.168 1.247c.462.063 1.01.092 1.638.092v-1.259zm-1.47-.081a5.707 5.707 0 0 1-1.18-.289l.04.013-.419 1.186c.399.147.869.265 1.354.333l.037.004.168-1.247zm-1.135-.274a3.37 3.37 0 0 1-.915-.486l.009.006-.765.998c.358.274.775.494 1.243.663l.429-1.182zm-.899-.474a2.027 2.027 0 0 1-.541-.679l-.005-.012-1.125.562c.219.443.519.815.884 1.11l.006.005.781-.986zm-.545-.688c-.132-.267-.211-.612-.211-1.054h-1.257c0 .59.105 1.134.341 1.611l1.127-.558zm-.211-1.054c0-.442.08-.833.231-1.18l-1.154-.501a4.124 4.124 0 0 0-.334 1.639v.044-.002h1.258zm.231-1.181c.159-.366.353-.636.572-.831l-.837-.94a3.577 3.577 0 0 0-.889 1.269l1.153.501zm.572-.831c.676-.602 1.707-.952 3.193-.952v-1.257c-1.668 0-3.044.391-4.03 1.271l.837.939zm3.193-.952c.666 0 1.295.127 1.892.38l.491-1.158a5.946 5.946 0 0 0-2.359-.479h-.024.001v1.257zm1.885.378c.557.243.917.587 1.129 1.025l1.131-.55c-.36-.741-.962-1.281-1.756-1.628l-.503 1.153zm1.131 1.029c.118.238.181.508.181.821h1.257c0-.489-.1-.953-.311-1.378l-1.128.557zm.183.775-.074 1.013 1.254.091.074-1.013-1.254-.091zm.557.43-4.981-.025-.006 1.258 4.981.024.006-1.258zm-5.593.764c.147.558.506.98 1.011 1.266l.619-1.095c-.249-.141-.364-.304-.414-.491l-1.216.32zm1.014 1.267c.511.285 1.148.4 1.861.4V27.95c-.597 0-.996-.099-1.247-.24l-.614 1.098zm1.861.399c.765 0 1.605-.207 2.508-.583l-.484-1.161c-.809.336-1.479.486-2.025.486v1.258zm2.266-.534h.331v-1.257h-.331v1.257zm-.296-.676-.117 1.56 1.254.094.117-1.56-1.254-.094z"/></symbol><symbol id="icon-x-close" viewBox="0 0 32 32"><path fill="#fcfcfc" d="M23.884 6.706 16 14.59 8.116 6.706a.996.996 0 0 0-1.672.736c0 .26.099.497.262.674l-.001-.001 7.88 7.884-7.882 7.882a.998.998 0 0 0 1.41 1.412l7.886-7.882 7.884 7.884a.996.996 0 0 0 1.672-.736.992.992 0 0 0-.262-.674l.001.001-7.884-7.884 7.884-7.886a.998.998 0 0 0-1.41-1.412v.002z"/></symbol><symbol id="icon-github" viewBox="0 0 32 32"><path fill="#f8d24e" d="M32 16c0 8.837-7.163 16-16 16S0 24.837 0 16 7.163 0 16 0s16 7.163 16 16z"/><path fill="#84a178" d="M16 6.588c-5.17 0-9.412 4.242-9.412 9.412 0 4.411 3.096 8.419 7.206 9.412v-3.113a2.314 2.314 0 0 1-1.196-.031c-.556-.164-1.008-.535-1.344-1.099-.214-.36-.593-.753-.988-.724l-.097-1.098c.856-.073 1.594.521 2.033 1.258.196.328.421.52.709.605.278.083.577.043.925-.08.088-.697.408-.958.649-1.327-2.452-.365-3.429-1.666-3.816-2.692-.514-1.364-.238-3.066.67-4.143.018-.021.05-.075.038-.113-.417-1.259.09-2.3.109-2.41.481.141.559-.143 2.089.786l.264.159c.111.066.075.028.186.019a7.787 7.787 0 0 1 1.97-.276h.006a8.021 8.021 0 0 1 2.002.284l.086.009c-.008-.002.024-.006.075-.037 1.911-1.158 1.842-.779 2.355-.946.019.111.519 1.169.106 2.411-.056.171 1.656 1.739.708 4.256-.388 1.026-1.365 2.328-3.816 2.693.314.48.692.734.69 1.722v3.886c4.109-.993 7.206-5 7.206-9.412 0-5.17-4.242-9.412-9.412-9.412z"/></symbol><symbol id="icon-telegram" viewBox="0 0 32 32"><path fill="#f8d24e" d="M32 16c0 8.837-7.163 16-16 16S0 24.837 0 16 7.163 0 16 0s16 7.163 16 16z"/><path fill="#84a178" d="m12.867 18.376-.317 4.169c.455 0 .651-.183.888-.401l2.13-1.901 4.414 3.018c.809.421 1.381.199 1.599-.696l2.898-12.673c.257-1.117-.433-1.554-1.221-1.28L6.225 14.698c-1.163.422-1.145 1.026-.198 1.301l4.354 1.264 10.115-5.907c.476-.295.909-.132.552.163l-8.182 6.856z"/></symbol><symbol id="icon-facebook" viewBox="0 0 32 32"><path fill="#f8d24e" d="M16 32c8.837 0 16-7.163 16-16S24.837 0 16 0 0 7.163 0 16s7.163 16 16 16z"/><path fill="#84a178" d="M20.446 15.981h-2.611V25.6H13.88v-9.619H12v-3.379h1.88v-2.187c0-1.564.739-4.014 3.991-4.014l2.929.012v3.281h-2.125c-.348 0-.839.176-.839.922v1.989h2.955l-.345 3.377z"/></symbol><symbol id="icon-footer-line" viewBox="0 0 5120 32"><path fill="none" stroke="#e1e1e1" stroke-width="16" d="M0 16h5120"/></symbol></defs></svg>